<svg id="visual" viewBox="0 0 900 600" width="900" height="600" xmlns="http://www.w3.org/2000/svg" xmlns:xlink="http://www.w3.org/1999/xlink" version="1.1"><path d="M0 220L8.3 218.5C16.7 217 33.3 214 50 227.5C66.7 241 83.3 271 100 298.2C116.7 325.3 133.3 349.7 150 334.8C166.7 320 183.3 266 200 247.5C216.7 229 233.3 246 250 250.3C266.7 254.7 283.3 246.3 300 243.5C316.7 240.7 333.3 243.3 350 245.3C366.7 247.3 383.3 248.7 400 251.2C416.7 253.7 433.3 257.3 450 255.8C466.7 254.3 483.3 247.7 500 260.3C516.7 273 533.3 305 550 301.7C566.7 298.3 583.3 259.7 600 245.3C616.7 231 633.3 241 650 253.5C666.7 266 683.3 281 700 290.2C716.7 299.3 733.3 302.7 750 292.8C766.7 283 783.3 260 800 272.8C816.7 285.7 833.3 334.3 850 342C866.7 349.7 883.3 316.3 891.7 299.7L900 283L900 601L891.7 601C883.3 601 866.7 601 850 601C833.3 601 816.7 601 800 601C783.3 601 766.7 601 750 601C733.3 601 716.7 601 700 601C683.3 601 666.7 601 650 601C633.3 601 616.7 601 600 601C583.3 601 566.7 601 550 601C533.3 601 516.7 601 500 601C483.3 601 466.7 601 450 601C433.3 601 416.7 601 400 601C383.3 601 366.7 601 350 601C333.3 601 316.7 601 300 601C283.3 601 266.7 601 250 601C233.3 601 216.7 601 200 601C183.3 601 166.7 601 150 601C133.3 601 116.7 601 100 601C83.3 601 66.7 601 50 601C33.3 601 16.7 601 8.3 601L0 601Z" fill="#b0fe76" stroke-linecap="round" stroke-linejoin="miter"></path></svg>