<svg width="540" height="543" viewBox="0 0 540 543" fill="none" xmlns="http://www.w3.org/2000/svg">
<mask id="mask0_4_5" style="mask-type:alpha" maskUnits="userSpaceOnUse" x="0" y="0" width="540" height="543">
<rect width="540" height="543" rx="15" fill="#102501"/>
</mask>
<g mask="url(#mask0_4_5)">
<path d="M48.5 -48V-63H36.5V-69H54.5V-54H63.5V-78H36.5V-84H69.5V-48H48.5ZM78.5 -63V-84H96.5V-78H84.5V-69H123.5V-78H111.5V-84H129.5V-63H78.5ZM3.50001 -3.00001V-24H21.5V-18H9.50001V-9.00002H78.5V-24H93.5V-39H108.5V-48H84.5V-33H33.5V-48H24.5V-36H18.5V-54H39.5V-39H78.5V-54H114.5V-33H99.5V-18H84.5V-3.00001H3.50001ZM36.5 -18V-24H66.5V-18H36.5ZM93.5 8.99998V-6H99.5V8.99998H93.5ZM21.5 12V5.99999H36.5V12H21.5ZM63.5 24V5.99999H84.5V24H78.5V12H69.5V24H63.5ZM33.5 57V27H24.5V42H3.50001V8.99998H9.50001V36H18.5V21H39.5V51H63.5V36H84.5V54H78.5V42H69.5V57H33.5ZM48.5 39V8.99998H54.5V39H48.5ZM-26.5 69V51H-11.5V24H-5.49999V57H-20.5V69H-26.5ZM-23.5 87V81H18.5V57H9.50001V69H3.50001V51H24.5V87H-23.5ZM33.5 84V66H51.5V72H39.5V84H33.5ZM63.5 84V69H69.5V84H63.5ZM33.5 117V96H48.5V84H54.5V102H39.5V111H51.5V117H33.5ZM-38.5 162V156H-26.5V147H-56.5V126H-41.5V96H-5.49999V129H-11.5V102H-35.5V132H-50.5V141H-20.5V162H-38.5ZM21.5 147V141H33.5V132H3.50001V96H24.5V114H18.5V102H9.50001V126H39.5V147H21.5ZM-26.5 129V114H-20.5V129H-26.5ZM-11.5 162V141H6.5V147H-5.49999V156H36.5V162H-11.5ZM-56.5 207V186H-41.5V177H-56.5V159H-50.5V171H-35.5V192H-50.5V201H-26.5V186H-11.5V171H24.5V192H6.5V186H18.5V177H-5.49999V192H-20.5V207H-56.5ZM-71.5 189V174H-65.5V189H-71.5ZM-101.5 342V327H-116.5V291H-95.5V306H-56.5V297H-71.5V267H-101.5V231H-80.5V246H-71.5V216H-20.5V231H-11.5V201H9.50001V219H3.50001V207H-5.49999V237H-26.5V222H-65.5V252H-86.5V237H-95.5V261H-65.5V291H-50.5V312H-101.5V297H-110.5V321H-95.5V336H-86.5V321H-65.5V336H-56.5V321H-41.5V282H-56.5V261H-41.5V237H-50.5V249H-56.5V231H-35.5V267H-50.5V276H-35.5V327H-50.5V342H-71.5V327H-80.5V342H-101.5ZM-83.5 207V201H-68.5V207H-83.5ZM-26.5 294V246H-5.49999V264H-11.5V252H-20.5V294H-26.5ZM-86.5 294V282H-113.5V276H-80.5V294H-86.5ZM-131.5 324V309H-125.5V324H-131.5ZM-128.5 342V336H-113.5V342H-128.5Z" fill="black" fill-opacity="0.06"/>
<path d="M27.5 378V363H15.5V357H33.5V372H42.5V348H15.5V342H48.5V378H27.5ZM57.5 363V342H75.5V348H63.5V357H102.5V348H90.5V342H108.5V363H57.5ZM-17.5 423V402H0.500005V408H-11.5V417H57.5V402H72.5V387H87.5V378H63.5V393H12.5V378H3.50001V390H-2.49999V372H18.5V387H57.5V372H93.5V393H78.5V408H63.5V423H-17.5ZM15.5 408V402H45.5V408H15.5ZM72.5 435V420H78.5V435H72.5ZM0.500005 438V432H15.5V438H0.500005ZM42.5 450V432H63.5V450H57.5V438H48.5V450H42.5ZM12.5 483V453H3.50001V468H-17.5V435H-11.5V462H-2.49999V447H18.5V477H42.5V462H63.5V480H57.5V468H48.5V483H12.5ZM27.5 465V435H33.5V465H27.5ZM-47.5 495V477H-32.5V450H-26.5V483H-41.5V495H-47.5ZM-44.5 513V507H-2.49999V483H-11.5V495H-17.5V477H3.50001V513H-44.5ZM12.5 510V492H30.5V498H18.5V510H12.5ZM42.5 510V495H48.5V510H42.5ZM12.5 543V522H27.5V510H33.5V528H18.5V537H30.5V543H12.5ZM-59.5 588V582H-47.5V573H-77.5V552H-62.5V522H-26.5V555H-32.5V528H-56.5V558H-71.5V567H-41.5V588H-59.5ZM0.500005 573V567H12.5V558H-17.5V522H3.50001V540H-2.49999V528H-11.5V552H18.5V573H0.500005ZM-47.5 555V540H-41.5V555H-47.5ZM-32.5 588V567H-14.5V573H-26.5V582H15.5V588H-32.5ZM-77.5 633V612H-62.5V603H-77.5V585H-71.5V597H-56.5V618H-71.5V627H-47.5V612H-32.5V597H3.50001V618H-14.5V612H-2.49999V603H-26.5V618H-41.5V633H-77.5ZM-92.5 615V600H-86.5V615H-92.5ZM-122.5 768V753H-137.5V717H-116.5V732H-77.5V723H-92.5V693H-122.5V657H-101.5V672H-92.5V642H-41.5V657H-32.5V627H-11.5V645H-17.5V633H-26.5V663H-47.5V648H-86.5V678H-107.5V663H-116.5V687H-86.5V717H-71.5V738H-122.5V723H-131.5V747H-116.5V762H-107.5V747H-86.5V762H-77.5V747H-62.5V708H-77.5V687H-62.5V663H-71.5V675H-77.5V657H-56.5V693H-71.5V702H-56.5V753H-71.5V768H-92.5V753H-101.5V768H-122.5ZM-104.5 633V627H-89.5V633H-104.5ZM-47.5 720V672H-26.5V690H-32.5V678H-41.5V720H-47.5ZM-107.5 720V708H-134.5V702H-101.5V720H-107.5ZM-152.5 750V735H-146.5V750H-152.5ZM-149.5 768V762H-134.5V768H-149.5Z" fill="black" fill-opacity="0.06"/>
<path d="M143.5 -48V-63H131.5V-69H149.5V-54H158.5V-78H131.5V-84H164.5V-48H143.5ZM173.5 -63V-84H191.5V-78H179.5V-69H218.5V-78H206.5V-84H224.5V-63H173.5ZM98.5 -3.00001V-24H116.5V-18H104.5V-9.00002H173.5V-24H188.5V-39H203.5V-48H179.5V-33H128.5V-48H119.5V-36H113.5V-54H134.5V-39H173.5V-54H209.5V-33H194.5V-18H179.5V-3.00001H98.5ZM131.5 -18V-24H161.5V-18H131.5ZM188.5 8.99998V-6H194.5V8.99998H188.5ZM116.5 12V5.99999H131.5V12H116.5ZM158.5 24V5.99999H179.5V24H173.5V12H164.5V24H158.5ZM128.5 57V27H119.5V42H98.5V8.99998H104.5V36H113.5V21H134.5V51H158.5V36H179.5V54H173.5V42H164.5V57H128.5ZM143.5 39V8.99998H149.5V39H143.5ZM68.5 69V51H83.5V24H89.5V57H74.5V69H68.5ZM71.5 87V81H113.5V57H104.5V69H98.5V51H119.5V87H71.5ZM128.5 84V66H146.5V72H134.5V84H128.5ZM158.5 84V69H164.5V84H158.5ZM128.5 117V96H143.5V84H149.5V102H134.5V111H146.5V117H128.5ZM56.5 162V156H68.5V147H38.5V126H53.5V96H89.5V129H83.5V102H59.5V132H44.5V141H74.5V162H56.5ZM116.5 147V141H128.5V132H98.5V96H119.5V114H113.5V102H104.5V126H134.5V147H116.5ZM68.5 129V114H74.5V129H68.5ZM83.5 162V141H101.5V147H89.5V156H131.5V162H83.5ZM38.5 207V186H53.5V177H38.5V159H44.5V171H59.5V192H44.5V201H68.5V186H83.5V171H119.5V192H101.5V186H113.5V177H89.5V192H74.5V207H38.5ZM23.5 189V174H29.5V189H23.5ZM-6.5 342V327H-21.5V291H-0.499998V306H38.5V297H23.5V267H-6.5V231H14.5V246H23.5V216H74.5V231H83.5V201H104.5V219H98.5V207H89.5V237H68.5V222H29.5V252H8.5V237H-0.499998V261H29.5V291H44.5V312H-6.5V297H-15.5V321H-0.499998V336H8.5V321H29.5V336H38.5V321H53.5V282H38.5V261H53.5V237H44.5V249H38.5V231H59.5V267H44.5V276H59.5V327H44.5V342H23.5V327H14.5V342H-6.5ZM11.5 207V201H26.5V207H11.5ZM68.5 294V246H89.5V264H83.5V252H74.5V294H68.5ZM8.5 294V282H-18.5V276H14.5V294H8.5ZM-36.5 324V309H-30.5V324H-36.5ZM-33.5 342V336H-18.5V342H-33.5Z" fill="black" fill-opacity="0.06"/>
<path d="M122.5 378V363H110.5V357H128.5V372H137.5V348H110.5V342H143.5V378H122.5ZM152.5 363V342H170.5V348H158.5V357H197.5V348H185.5V342H203.5V363H152.5ZM77.5 423V402H95.5V408H83.5V417H152.5V402H167.5V387H182.5V378H158.5V393H107.5V378H98.5V390H92.5V372H113.5V387H152.5V372H188.5V393H173.5V408H158.5V423H77.5ZM110.5 408V402H140.5V408H110.5ZM167.5 435V420H173.5V435H167.5ZM95.5 438V432H110.5V438H95.5ZM137.5 450V432H158.5V450H152.5V438H143.5V450H137.5ZM107.5 483V453H98.5V468H77.5V435H83.5V462H92.5V447H113.5V477H137.5V462H158.5V480H152.5V468H143.5V483H107.5ZM122.5 465V435H128.5V465H122.5ZM47.5 495V477H62.5V450H68.5V483H53.5V495H47.5ZM50.5 513V507H92.5V483H83.5V495H77.5V477H98.5V513H50.5ZM107.5 510V492H125.5V498H113.5V510H107.5ZM137.5 510V495H143.5V510H137.5ZM107.5 543V522H122.5V510H128.5V528H113.5V537H125.5V543H107.5ZM35.5 588V582H47.5V573H17.5V552H32.5V522H68.5V555H62.5V528H38.5V558H23.5V567H53.5V588H35.5ZM95.5 573V567H107.5V558H77.5V522H98.5V540H92.5V528H83.5V552H113.5V573H95.5ZM47.5 555V540H53.5V555H47.5ZM62.5 588V567H80.5V573H68.5V582H110.5V588H62.5ZM17.5 633V612H32.5V603H17.5V585H23.5V597H38.5V618H23.5V627H47.5V612H62.5V597H98.5V618H80.5V612H92.5V603H68.5V618H53.5V633H17.5ZM2.5 615V600H8.5V615H2.5ZM-27.5 768V753H-42.5V717H-21.5V732H17.5V723H2.5V693H-27.5V657H-6.5V672H2.5V642H53.5V657H62.5V627H83.5V645H77.5V633H68.5V663H47.5V648H8.5V678H-12.5V663H-21.5V687H8.5V717H23.5V738H-27.5V723H-36.5V747H-21.5V762H-12.5V747H8.5V762H17.5V747H32.5V708H17.5V687H32.5V663H23.5V675H17.5V657H38.5V693H23.5V702H38.5V753H23.5V768H2.5V753H-6.5V768H-27.5ZM-9.5 633V627H5.5V633H-9.5ZM47.5 720V672H68.5V690H62.5V678H53.5V720H47.5ZM-12.5 720V708H-39.5V702H-6.5V720H-12.5ZM-57.5 750V735H-51.5V750H-57.5ZM-54.5 768V762H-39.5V768H-54.5Z" fill="black" fill-opacity="0.06"/>
<path d="M238.5 -48V-63H226.5V-69H244.5V-54H253.5V-78H226.5V-84H259.5V-48H238.5ZM268.5 -63V-84H286.5V-78H274.5V-69H313.5V-78H301.5V-84H319.5V-63H268.5ZM193.5 -3.00001V-24H211.5V-18H199.5V-9.00002H268.5V-24H283.5V-39H298.5V-48H274.5V-33H223.5V-48H214.5V-36H208.5V-54H229.5V-39H268.5V-54H304.5V-33H289.5V-18H274.5V-3.00001H193.5ZM226.5 -18V-24H256.5V-18H226.5ZM283.5 8.99998V-6H289.5V8.99998H283.5ZM211.5 12V5.99999H226.5V12H211.5ZM253.5 24V5.99999H274.5V24H268.5V12H259.5V24H253.5ZM223.5 57V27H214.5V42H193.5V8.99998H199.5V36H208.5V21H229.5V51H253.5V36H274.5V54H268.5V42H259.5V57H223.5ZM238.5 39V8.99998H244.5V39H238.5ZM163.5 69V51H178.5V24H184.5V57H169.5V69H163.5ZM166.5 87V81H208.5V57H199.5V69H193.5V51H214.5V87H166.5ZM223.5 84V66H241.5V72H229.5V84H223.5ZM253.5 84V69H259.5V84H253.5ZM223.5 117V96H238.5V84H244.5V102H229.5V111H241.5V117H223.5ZM151.5 162V156H163.5V147H133.5V126H148.5V96H184.5V129H178.5V102H154.5V132H139.5V141H169.5V162H151.5ZM211.5 147V141H223.5V132H193.5V96H214.5V114H208.5V102H199.5V126H229.5V147H211.5ZM163.5 129V114H169.5V129H163.5ZM178.5 162V141H196.5V147H184.5V156H226.5V162H178.5ZM133.5 207V186H148.5V177H133.5V159H139.5V171H154.5V192H139.5V201H163.5V186H178.5V171H214.5V192H196.5V186H208.5V177H184.5V192H169.5V207H133.5ZM118.5 189V174H124.5V189H118.5ZM88.5 342V327H73.5V291H94.5V306H133.5V297H118.5V267H88.5V231H109.5V246H118.5V216H169.5V231H178.5V201H199.5V219H193.5V207H184.5V237H163.5V222H124.5V252H103.5V237H94.5V261H124.5V291H139.5V312H88.5V297H79.5V321H94.5V336H103.5V321H124.5V336H133.5V321H148.5V282H133.5V261H148.5V237H139.5V249H133.5V231H154.5V267H139.5V276H154.5V327H139.5V342H118.5V327H109.5V342H88.5ZM106.5 207V201H121.5V207H106.5ZM163.5 294V246H184.5V264H178.5V252H169.5V294H163.5ZM103.5 294V282H76.5V276H109.5V294H103.5ZM58.5 324V309H64.5V324H58.5ZM61.5 342V336H76.5V342H61.5Z" fill="black" fill-opacity="0.06"/>
<path d="M217.5 378V363H205.5V357H223.5V372H232.5V348H205.5V342H238.5V378H217.5ZM247.5 363V342H265.5V348H253.5V357H292.5V348H280.5V342H298.5V363H247.5ZM172.5 423V402H190.5V408H178.5V417H247.5V402H262.5V387H277.5V378H253.5V393H202.5V378H193.5V390H187.5V372H208.5V387H247.5V372H283.5V393H268.5V408H253.5V423H172.5ZM205.5 408V402H235.5V408H205.5ZM262.5 435V420H268.5V435H262.5ZM190.5 438V432H205.5V438H190.5ZM232.5 450V432H253.5V450H247.5V438H238.5V450H232.5ZM202.5 483V453H193.5V468H172.5V435H178.5V462H187.5V447H208.5V477H232.5V462H253.5V480H247.5V468H238.5V483H202.5ZM217.5 465V435H223.5V465H217.5ZM142.5 495V477H157.5V450H163.5V483H148.5V495H142.5ZM145.5 513V507H187.5V483H178.5V495H172.5V477H193.5V513H145.5ZM202.5 510V492H220.5V498H208.5V510H202.5ZM232.5 510V495H238.5V510H232.5ZM202.5 543V522H217.5V510H223.5V528H208.5V537H220.5V543H202.5ZM130.5 588V582H142.5V573H112.5V552H127.5V522H163.5V555H157.5V528H133.5V558H118.5V567H148.5V588H130.5ZM190.5 573V567H202.5V558H172.5V522H193.5V540H187.5V528H178.5V552H208.5V573H190.5ZM142.5 555V540H148.5V555H142.5ZM157.5 588V567H175.5V573H163.5V582H205.5V588H157.5ZM112.5 633V612H127.5V603H112.5V585H118.5V597H133.5V618H118.5V627H142.5V612H157.5V597H193.5V618H175.5V612H187.5V603H163.5V618H148.5V633H112.5ZM97.5 615V600H103.5V615H97.5ZM67.5 768V753H52.5V717H73.5V732H112.5V723H97.5V693H67.5V657H88.5V672H97.5V642H148.5V657H157.5V627H178.5V645H172.5V633H163.5V663H142.5V648H103.5V678H82.5V663H73.5V687H103.5V717H118.5V738H67.5V723H58.5V747H73.5V762H82.5V747H103.5V762H112.5V747H127.5V708H112.5V687H127.5V663H118.5V675H112.5V657H133.5V693H118.5V702H133.5V753H118.5V768H97.5V753H88.5V768H67.5ZM85.5 633V627H100.5V633H85.5ZM142.5 720V672H163.5V690H157.5V678H148.5V720H142.5ZM82.5 720V708H55.5V702H88.5V720H82.5ZM37.5 750V735H43.5V750H37.5ZM40.5 768V762H55.5V768H40.5Z" fill="black" fill-opacity="0.06"/>
<path d="M333.5 -48V-63H321.5V-69H339.5V-54H348.5V-78H321.5V-84H354.5V-48H333.5ZM363.5 -63V-84H381.5V-78H369.5V-69H408.5V-78H396.5V-84H414.5V-63H363.5ZM288.5 -3.00001V-24H306.5V-18H294.5V-9.00002H363.5V-24H378.5V-39H393.5V-48H369.5V-33H318.5V-48H309.5V-36H303.5V-54H324.5V-39H363.5V-54H399.5V-33H384.5V-18H369.5V-3.00001H288.5ZM321.5 -18V-24H351.5V-18H321.5ZM378.5 8.99998V-6H384.5V8.99998H378.5ZM306.5 12V5.99999H321.5V12H306.5ZM348.5 24V5.99999H369.5V24H363.5V12H354.5V24H348.5ZM318.5 57V27H309.5V42H288.5V8.99998H294.5V36H303.5V21H324.5V51H348.5V36H369.5V54H363.5V42H354.5V57H318.5ZM333.5 39V8.99998H339.5V39H333.5ZM258.5 69V51H273.5V24H279.5V57H264.5V69H258.5ZM261.5 87V81H303.5V57H294.5V69H288.5V51H309.5V87H261.5ZM318.5 84V66H336.5V72H324.5V84H318.5ZM348.5 84V69H354.5V84H348.5ZM318.5 117V96H333.5V84H339.5V102H324.5V111H336.5V117H318.5ZM246.5 162V156H258.5V147H228.5V126H243.5V96H279.5V129H273.5V102H249.5V132H234.5V141H264.5V162H246.5ZM306.5 147V141H318.5V132H288.5V96H309.5V114H303.5V102H294.5V126H324.5V147H306.5ZM258.5 129V114H264.5V129H258.5ZM273.5 162V141H291.5V147H279.5V156H321.5V162H273.5ZM228.5 207V186H243.5V177H228.5V159H234.5V171H249.5V192H234.5V201H258.5V186H273.5V171H309.5V192H291.5V186H303.5V177H279.5V192H264.5V207H228.5ZM213.5 189V174H219.5V189H213.5ZM183.5 342V327H168.5V291H189.5V306H228.5V297H213.5V267H183.5V231H204.5V246H213.5V216H264.5V231H273.5V201H294.5V219H288.5V207H279.5V237H258.5V222H219.5V252H198.5V237H189.5V261H219.5V291H234.5V312H183.5V297H174.5V321H189.5V336H198.5V321H219.5V336H228.5V321H243.5V282H228.5V261H243.5V237H234.5V249H228.5V231H249.5V267H234.5V276H249.5V327H234.5V342H213.5V327H204.5V342H183.5ZM201.5 207V201H216.5V207H201.5ZM258.5 294V246H279.5V264H273.5V252H264.5V294H258.5ZM198.5 294V282H171.5V276H204.5V294H198.5ZM153.5 324V309H159.5V324H153.5ZM156.5 342V336H171.5V342H156.5Z" fill="black" fill-opacity="0.06"/>
<path d="M312.5 378V363H300.5V357H318.5V372H327.5V348H300.5V342H333.5V378H312.5ZM342.5 363V342H360.5V348H348.5V357H387.5V348H375.5V342H393.5V363H342.5ZM267.5 423V402H285.5V408H273.5V417H342.5V402H357.5V387H372.5V378H348.5V393H297.5V378H288.5V390H282.5V372H303.5V387H342.5V372H378.5V393H363.5V408H348.5V423H267.5ZM300.5 408V402H330.5V408H300.5ZM357.5 435V420H363.5V435H357.5ZM285.5 438V432H300.5V438H285.5ZM327.5 450V432H348.5V450H342.5V438H333.5V450H327.5ZM297.5 483V453H288.5V468H267.5V435H273.5V462H282.5V447H303.5V477H327.5V462H348.5V480H342.5V468H333.5V483H297.5ZM312.5 465V435H318.5V465H312.5ZM237.5 495V477H252.5V450H258.5V483H243.5V495H237.5ZM240.5 513V507H282.5V483H273.5V495H267.5V477H288.5V513H240.5ZM297.5 510V492H315.5V498H303.5V510H297.5ZM327.5 510V495H333.5V510H327.5ZM297.5 543V522H312.5V510H318.5V528H303.5V537H315.5V543H297.5ZM225.5 588V582H237.5V573H207.5V552H222.5V522H258.5V555H252.5V528H228.5V558H213.5V567H243.5V588H225.5ZM285.5 573V567H297.5V558H267.5V522H288.5V540H282.5V528H273.5V552H303.5V573H285.5ZM237.5 555V540H243.5V555H237.5ZM252.5 588V567H270.5V573H258.5V582H300.5V588H252.5ZM207.5 633V612H222.5V603H207.5V585H213.5V597H228.5V618H213.5V627H237.5V612H252.5V597H288.5V618H270.5V612H282.5V603H258.5V618H243.5V633H207.5ZM192.5 615V600H198.5V615H192.5ZM162.5 768V753H147.5V717H168.5V732H207.5V723H192.5V693H162.5V657H183.5V672H192.5V642H243.5V657H252.5V627H273.5V645H267.5V633H258.5V663H237.5V648H198.5V678H177.5V663H168.5V687H198.5V717H213.5V738H162.5V723H153.5V747H168.5V762H177.5V747H198.5V762H207.5V747H222.5V708H207.5V687H222.5V663H213.5V675H207.5V657H228.5V693H213.5V702H228.5V753H213.5V768H192.5V753H183.5V768H162.5ZM180.5 633V627H195.5V633H180.5ZM237.5 720V672H258.5V690H252.5V678H243.5V720H237.5ZM177.5 720V708H150.5V702H183.5V720H177.5ZM132.5 750V735H138.5V750H132.5ZM135.5 768V762H150.5V768H135.5Z" fill="black" fill-opacity="0.06"/>
<path d="M428.5 -48V-63H416.5V-69H434.5V-54H443.5V-78H416.5V-84H449.5V-48H428.5ZM458.5 -63V-84H476.5V-78H464.5V-69H503.5V-78H491.5V-84H509.5V-63H458.5ZM383.5 -3.00001V-24H401.5V-18H389.5V-9.00002H458.5V-24H473.5V-39H488.5V-48H464.5V-33H413.5V-48H404.5V-36H398.5V-54H419.5V-39H458.5V-54H494.5V-33H479.5V-18H464.5V-3.00001H383.5ZM416.5 -18V-24H446.5V-18H416.5ZM473.5 8.99998V-6H479.5V8.99998H473.5ZM401.5 12V5.99999H416.5V12H401.5ZM443.5 24V5.99999H464.5V24H458.5V12H449.5V24H443.5ZM413.5 57V27H404.5V42H383.5V8.99998H389.5V36H398.5V21H419.5V51H443.5V36H464.5V54H458.5V42H449.5V57H413.5ZM428.5 39V8.99998H434.5V39H428.5ZM353.5 69V51H368.5V24H374.5V57H359.5V69H353.5ZM356.5 87V81H398.5V57H389.5V69H383.5V51H404.5V87H356.5ZM413.5 84V66H431.5V72H419.5V84H413.5ZM443.5 84V69H449.5V84H443.5ZM413.5 117V96H428.5V84H434.5V102H419.5V111H431.5V117H413.5ZM341.5 162V156H353.5V147H323.5V126H338.5V96H374.5V129H368.5V102H344.5V132H329.5V141H359.5V162H341.5ZM401.5 147V141H413.5V132H383.5V96H404.5V114H398.5V102H389.5V126H419.5V147H401.5ZM353.5 129V114H359.5V129H353.5ZM368.5 162V141H386.5V147H374.5V156H416.5V162H368.5ZM323.5 207V186H338.5V177H323.5V159H329.5V171H344.5V192H329.5V201H353.5V186H368.5V171H404.5V192H386.5V186H398.5V177H374.5V192H359.5V207H323.5ZM308.5 189V174H314.5V189H308.5ZM278.5 342V327H263.5V291H284.5V306H323.5V297H308.5V267H278.5V231H299.5V246H308.5V216H359.5V231H368.5V201H389.5V219H383.5V207H374.5V237H353.5V222H314.5V252H293.5V237H284.5V261H314.5V291H329.5V312H278.5V297H269.5V321H284.5V336H293.5V321H314.5V336H323.5V321H338.5V282H323.5V261H338.5V237H329.5V249H323.5V231H344.5V267H329.5V276H344.5V327H329.5V342H308.5V327H299.5V342H278.5ZM296.5 207V201H311.5V207H296.5ZM353.5 294V246H374.5V264H368.5V252H359.5V294H353.5ZM293.5 294V282H266.5V276H299.5V294H293.5ZM248.5 324V309H254.5V324H248.5ZM251.5 342V336H266.5V342H251.5Z" fill="black" fill-opacity="0.06"/>
<path d="M407.5 378V363H395.5V357H413.5V372H422.5V348H395.5V342H428.5V378H407.5ZM437.5 363V342H455.5V348H443.5V357H482.5V348H470.5V342H488.5V363H437.5ZM362.5 423V402H380.5V408H368.5V417H437.5V402H452.5V387H467.5V378H443.5V393H392.5V378H383.5V390H377.5V372H398.5V387H437.5V372H473.5V393H458.5V408H443.5V423H362.5ZM395.5 408V402H425.5V408H395.5ZM452.5 435V420H458.5V435H452.5ZM380.5 438V432H395.5V438H380.5ZM422.5 450V432H443.5V450H437.5V438H428.5V450H422.5ZM392.5 483V453H383.5V468H362.5V435H368.5V462H377.5V447H398.5V477H422.5V462H443.5V480H437.5V468H428.5V483H392.5ZM407.5 465V435H413.5V465H407.5ZM332.5 495V477H347.5V450H353.5V483H338.5V495H332.5ZM335.5 513V507H377.5V483H368.5V495H362.5V477H383.5V513H335.5ZM392.5 510V492H410.5V498H398.5V510H392.5ZM422.5 510V495H428.5V510H422.5ZM392.5 543V522H407.5V510H413.5V528H398.5V537H410.5V543H392.5ZM320.5 588V582H332.5V573H302.5V552H317.5V522H353.5V555H347.5V528H323.5V558H308.5V567H338.5V588H320.5ZM380.5 573V567H392.5V558H362.5V522H383.5V540H377.5V528H368.5V552H398.5V573H380.5ZM332.5 555V540H338.5V555H332.5ZM347.5 588V567H365.5V573H353.5V582H395.5V588H347.5ZM302.5 633V612H317.5V603H302.5V585H308.5V597H323.5V618H308.5V627H332.5V612H347.5V597H383.5V618H365.5V612H377.5V603H353.5V618H338.5V633H302.5ZM287.5 615V600H293.5V615H287.5ZM257.5 768V753H242.5V717H263.5V732H302.5V723H287.5V693H257.5V657H278.5V672H287.5V642H338.5V657H347.5V627H368.5V645H362.5V633H353.5V663H332.5V648H293.5V678H272.5V663H263.5V687H293.5V717H308.5V738H257.5V723H248.5V747H263.5V762H272.5V747H293.5V762H302.5V747H317.5V708H302.5V687H317.5V663H308.5V675H302.5V657H323.5V693H308.5V702H323.5V753H308.5V768H287.5V753H278.5V768H257.5ZM275.5 633V627H290.5V633H275.5ZM332.5 720V672H353.5V690H347.5V678H338.5V720H332.5ZM272.5 720V708H245.5V702H278.5V720H272.5ZM227.5 750V735H233.5V750H227.5ZM230.5 768V762H245.5V768H230.5Z" fill="black" fill-opacity="0.06"/>
<path d="M523.5 -48V-63H511.5V-69H529.5V-54H538.5V-78H511.5V-84H544.5V-48H523.5ZM553.5 -63V-84H571.5V-78H559.5V-69H598.5V-78H586.5V-84H604.5V-63H553.5ZM478.5 -3.00001V-24H496.5V-18H484.5V-9.00002H553.5V-24H568.5V-39H583.5V-48H559.5V-33H508.5V-48H499.5V-36H493.5V-54H514.5V-39H553.5V-54H589.5V-33H574.5V-18H559.5V-3.00001H478.5ZM511.5 -18V-24H541.5V-18H511.5ZM568.5 8.99998V-6H574.5V8.99998H568.5ZM496.5 12V5.99999H511.5V12H496.5ZM538.5 24V5.99999H559.5V24H553.5V12H544.5V24H538.5ZM508.5 57V27H499.5V42H478.5V8.99998H484.5V36H493.5V21H514.5V51H538.5V36H559.5V54H553.5V42H544.5V57H508.5ZM523.5 39V8.99998H529.5V39H523.5ZM448.5 69V51H463.5V24H469.5V57H454.5V69H448.5ZM451.5 87V81H493.5V57H484.5V69H478.5V51H499.5V87H451.5ZM508.5 84V66H526.5V72H514.5V84H508.5ZM538.5 84V69H544.5V84H538.5ZM508.5 117V96H523.5V84H529.5V102H514.5V111H526.5V117H508.5ZM436.5 162V156H448.5V147H418.5V126H433.5V96H469.5V129H463.5V102H439.5V132H424.5V141H454.5V162H436.5ZM496.5 147V141H508.5V132H478.5V96H499.5V114H493.5V102H484.5V126H514.5V147H496.5ZM448.5 129V114H454.5V129H448.5ZM463.5 162V141H481.5V147H469.5V156H511.5V162H463.5ZM418.5 207V186H433.5V177H418.5V159H424.5V171H439.5V192H424.5V201H448.5V186H463.5V171H499.5V192H481.5V186H493.5V177H469.5V192H454.5V207H418.5ZM403.5 189V174H409.5V189H403.5ZM373.5 342V327H358.5V291H379.5V306H418.5V297H403.5V267H373.5V231H394.5V246H403.5V216H454.5V231H463.5V201H484.5V219H478.5V207H469.5V237H448.5V222H409.5V252H388.5V237H379.5V261H409.5V291H424.5V312H373.5V297H364.5V321H379.5V336H388.5V321H409.5V336H418.5V321H433.5V282H418.5V261H433.5V237H424.5V249H418.5V231H439.5V267H424.5V276H439.5V327H424.5V342H403.5V327H394.5V342H373.5ZM391.5 207V201H406.5V207H391.5ZM448.5 294V246H469.5V264H463.5V252H454.5V294H448.5ZM388.5 294V282H361.5V276H394.5V294H388.5ZM343.5 324V309H349.5V324H343.5ZM346.5 342V336H361.5V342H346.5Z" fill="black" fill-opacity="0.06"/>
<path d="M502.5 378V363H490.5V357H508.5V372H517.5V348H490.5V342H523.5V378H502.5ZM532.5 363V342H550.5V348H538.5V357H577.5V348H565.5V342H583.5V363H532.5ZM457.5 423V402H475.5V408H463.5V417H532.5V402H547.5V387H562.5V378H538.5V393H487.5V378H478.5V390H472.5V372H493.5V387H532.5V372H568.5V393H553.5V408H538.5V423H457.5ZM490.5 408V402H520.5V408H490.5ZM547.5 435V420H553.5V435H547.5ZM475.5 438V432H490.5V438H475.5ZM517.5 450V432H538.5V450H532.5V438H523.5V450H517.5ZM487.5 483V453H478.5V468H457.5V435H463.5V462H472.5V447H493.5V477H517.5V462H538.5V480H532.5V468H523.5V483H487.5ZM502.5 465V435H508.5V465H502.5ZM427.5 495V477H442.5V450H448.5V483H433.5V495H427.5ZM430.5 513V507H472.5V483H463.5V495H457.5V477H478.5V513H430.5ZM487.5 510V492H505.5V498H493.5V510H487.5ZM517.5 510V495H523.5V510H517.5ZM487.5 543V522H502.5V510H508.5V528H493.5V537H505.5V543H487.5ZM415.5 588V582H427.5V573H397.5V552H412.5V522H448.5V555H442.5V528H418.5V558H403.5V567H433.5V588H415.5ZM475.5 573V567H487.5V558H457.5V522H478.5V540H472.5V528H463.5V552H493.5V573H475.5ZM427.5 555V540H433.5V555H427.5ZM442.5 588V567H460.5V573H448.5V582H490.5V588H442.5ZM397.5 633V612H412.5V603H397.5V585H403.5V597H418.5V618H403.5V627H427.5V612H442.5V597H478.5V618H460.5V612H472.5V603H448.5V618H433.5V633H397.5ZM382.5 615V600H388.5V615H382.5ZM352.5 768V753H337.5V717H358.5V732H397.5V723H382.5V693H352.5V657H373.5V672H382.5V642H433.5V657H442.5V627H463.5V645H457.5V633H448.5V663H427.5V648H388.5V678H367.5V663H358.5V687H388.5V717H403.5V738H352.5V723H343.5V747H358.5V762H367.5V747H388.5V762H397.5V747H412.5V708H397.5V687H412.5V663H403.5V675H397.5V657H418.5V693H403.5V702H418.5V753H403.5V768H382.5V753H373.5V768H352.5ZM370.5 633V627H385.5V633H370.5ZM427.5 720V672H448.5V690H442.5V678H433.5V720H427.5ZM367.5 720V708H340.5V702H373.5V720H367.5ZM322.5 750V735H328.5V750H322.5ZM325.5 768V762H340.5V768H325.5Z" fill="black" fill-opacity="0.06"/>
<path d="M618.5 -48V-63H606.5V-69H624.5V-54H633.5V-78H606.5V-84H639.5V-48H618.5ZM648.5 -63V-84H666.5V-78H654.5V-69H693.5V-78H681.5V-84H699.5V-63H648.5ZM573.5 -3.00001V-24H591.5V-18H579.5V-9.00002H648.5V-24H663.5V-39H678.5V-48H654.5V-33H603.5V-48H594.5V-36H588.5V-54H609.5V-39H648.5V-54H684.5V-33H669.5V-18H654.5V-3.00001H573.5ZM606.5 -18V-24H636.5V-18H606.5ZM663.5 8.99998V-6H669.5V8.99998H663.5ZM591.5 12V5.99999H606.5V12H591.5ZM633.5 24V5.99999H654.5V24H648.5V12H639.5V24H633.5ZM603.5 57V27H594.5V42H573.5V8.99998H579.5V36H588.5V21H609.5V51H633.5V36H654.5V54H648.5V42H639.5V57H603.5ZM618.5 39V8.99998H624.5V39H618.5ZM543.5 69V51H558.5V24H564.5V57H549.5V69H543.5ZM546.5 87V81H588.5V57H579.5V69H573.5V51H594.5V87H546.5ZM603.5 84V66H621.5V72H609.5V84H603.5ZM633.5 84V69H639.5V84H633.5ZM603.5 117V96H618.5V84H624.5V102H609.5V111H621.5V117H603.5ZM531.5 162V156H543.5V147H513.5V126H528.5V96H564.5V129H558.5V102H534.5V132H519.5V141H549.5V162H531.5ZM591.5 147V141H603.5V132H573.5V96H594.5V114H588.5V102H579.5V126H609.5V147H591.5ZM543.5 129V114H549.5V129H543.5ZM558.5 162V141H576.5V147H564.5V156H606.5V162H558.5ZM513.5 207V186H528.5V177H513.5V159H519.5V171H534.5V192H519.5V201H543.5V186H558.5V171H594.5V192H576.5V186H588.5V177H564.5V192H549.5V207H513.5ZM498.5 189V174H504.5V189H498.5ZM468.5 342V327H453.5V291H474.5V306H513.5V297H498.5V267H468.5V231H489.5V246H498.5V216H549.5V231H558.5V201H579.5V219H573.5V207H564.5V237H543.5V222H504.5V252H483.5V237H474.5V261H504.5V291H519.5V312H468.5V297H459.5V321H474.5V336H483.5V321H504.5V336H513.5V321H528.5V282H513.5V261H528.5V237H519.5V249H513.5V231H534.5V267H519.5V276H534.5V327H519.5V342H498.5V327H489.5V342H468.5ZM486.5 207V201H501.5V207H486.5ZM543.5 294V246H564.5V264H558.5V252H549.5V294H543.5ZM483.5 294V282H456.5V276H489.5V294H483.5ZM438.5 324V309H444.5V324H438.5ZM441.5 342V336H456.5V342H441.5Z" fill="black" fill-opacity="0.06"/>
<path d="M597.5 378V363H585.5V357H603.5V372H612.5V348H585.5V342H618.5V378H597.5ZM627.5 363V342H645.5V348H633.5V357H672.5V348H660.5V342H678.5V363H627.5ZM552.5 423V402H570.5V408H558.5V417H627.5V402H642.5V387H657.5V378H633.5V393H582.5V378H573.5V390H567.5V372H588.5V387H627.5V372H663.5V393H648.5V408H633.5V423H552.5ZM585.5 408V402H615.5V408H585.5ZM642.5 435V420H648.5V435H642.5ZM570.5 438V432H585.5V438H570.5ZM612.5 450V432H633.5V450H627.5V438H618.5V450H612.5ZM582.5 483V453H573.5V468H552.5V435H558.5V462H567.5V447H588.5V477H612.5V462H633.5V480H627.5V468H618.5V483H582.5ZM597.5 465V435H603.5V465H597.5ZM522.5 495V477H537.5V450H543.5V483H528.5V495H522.5ZM525.5 513V507H567.5V483H558.5V495H552.5V477H573.5V513H525.5ZM582.5 510V492H600.5V498H588.5V510H582.5ZM612.5 510V495H618.5V510H612.5ZM582.5 543V522H597.5V510H603.5V528H588.5V537H600.5V543H582.5ZM510.5 588V582H522.5V573H492.5V552H507.5V522H543.5V555H537.5V528H513.5V558H498.5V567H528.5V588H510.5ZM570.5 573V567H582.5V558H552.5V522H573.5V540H567.5V528H558.5V552H588.5V573H570.5ZM522.5 555V540H528.5V555H522.5ZM537.5 588V567H555.5V573H543.5V582H585.5V588H537.5ZM492.5 633V612H507.5V603H492.5V585H498.5V597H513.5V618H498.5V627H522.5V612H537.5V597H573.5V618H555.5V612H567.5V603H543.5V618H528.5V633H492.5ZM477.5 615V600H483.5V615H477.5ZM447.5 768V753H432.5V717H453.5V732H492.5V723H477.5V693H447.5V657H468.5V672H477.5V642H528.5V657H537.5V627H558.5V645H552.5V633H543.5V663H522.5V648H483.5V678H462.5V663H453.5V687H483.5V717H498.5V738H447.5V723H438.5V747H453.5V762H462.5V747H483.5V762H492.5V747H507.5V708H492.5V687H507.5V663H498.5V675H492.5V657H513.5V693H498.5V702H513.5V753H498.5V768H477.5V753H468.5V768H447.5ZM465.5 633V627H480.5V633H465.5ZM522.5 720V672H543.5V690H537.5V678H528.5V720H522.5ZM462.5 720V708H435.5V702H468.5V720H462.5ZM417.5 750V735H423.5V750H417.5ZM420.5 768V762H435.5V768H420.5Z" fill="black" fill-opacity="0.06"/>
</g>
</svg>
